<svg width="16" height="16" viewBox="0 0 16 16" fill="none" xmlns="http://www.w3.org/2000/svg">
<g clip-path="url(#clip0_71_307)">
<path d="M0.666504 2.66631V6.66631M0.666504 6.66631H4.6665M0.666504 6.66631L3.75984 3.75964C4.68045 2.84059 5.8748 2.24562 7.16296 2.06438C8.45111 1.88315 9.76327 2.12546 10.9017 2.75482C12.0402 3.38417 12.9433 4.36647 13.4749 5.55371C14.0066 6.74094 14.138 8.06881 13.8493 9.33721C13.5607 10.6056 12.8676 11.7459 11.8746 12.5861C10.8816 13.4264 9.64234 13.9212 8.34365 13.996C7.04496 14.0707 5.75716 13.7214 4.67427 13.0006C3.59139 12.2798 2.7721 11.2266 2.33984 9.99964" stroke="#F5F5F5" stroke-width="1.6" stroke-linecap="round" stroke-linejoin="round"/>
</g>
<defs>
<clipPath id="clip0_71_307">
<rect width="16" height="16" fill="white"/>
</clipPath>
</defs>
</svg>
